{
	"asset":{
		"generator":"Khronos glTF Blender I/O v3.6.27",
		"version":"2.0"
	},
	"scene":0,
	"scenes":[
		{
			"name":"Scene",
			"nodes":[
				5
			]
		}
	],
	"nodes":[
		{
			"name":"mid",
			"rotation":[
				0,
				1.1920927533992653e-07,
				0,
				1
			],
			"scale":[
				1,
				0.9999999403953552,
				1
			],
			"translation":[
				0,
				0.06677616387605667,
				0
			]
		},
		{
			"children":[
				0
			],
			"name":"base",
			"translation":[
				0.3517639935016632,
				0.027466988191008568,
				4.3549476913540275e-08
			]
		},
		{
			"name":"end",
			"rotation":[
				0,
				1.1920928955078125e-07,
				0,
				1
			],
			"translation":[
				0.3517639935016632,
				0.5197188854217529,
				4.3549476913540275e-08
			]
		},
		{
			"name":"neutral_bone",
			"rotation":[
				-0.7071067690849304,
				0,
				0,
				0.7071067690849304
			]
		},
		{
			"mesh":0,
			"name":"Man.001",
			"skin":0
		},
		{
			"children":[
				4,
				1,
				2,
				3
			],
			"name":"Man",
			"translation":[
				-0.4162771701812744,
				-0.005913972854614258,
				0
			]
		}
	],
	"meshes":[
		{
			"name":"Man.001",
			"primitives":[
				{
					"attributes":{
						"POSITION":0,
						"NORMAL":1,
						"TEXCOORD_0":2,
						"JOINTS_0":3,
						"WEIGHTS_0":4
					},
					"indices":5
				}
			]
		}
	],
	"skins":[
		{
			"inverseBindMatrices":6,
			"joints":[
				1,
				0,
				2,
				3
			],
			"name":"Man"
		}
	],
	"accessors":[
		{
			"bufferView":0,
			"componentType":5126,
			"count":5679,
			"max":[
				0.46049290895462036,
				1.159034013748169,
				0.18456976115703583
			],
			"min":[
				-0.4832279682159424,
				-0.00020210258662700653,
				-0.18989130854606628
			],
			"type":"VEC3"
		},
		{
			"bufferView":1,
			"componentType":5126,
			"count":5679,
			"type":"VEC3"
		},
		{
			"bufferView":2,
			"componentType":5126,
			"count":5679,
			"type":"VEC2"
		},
		{
			"bufferView":3,
			"componentType":5121,
			"count":5679,
			"type":"VEC4"
		},
		{
			"bufferView":4,
			"componentType":5126,
			"count":5679,
			"type":"VEC4"
		},
		{
			"bufferView":5,
			"componentType":5123,
			"count":16680,
			"type":"SCALAR"
		},
		{
			"bufferView":6,
			"componentType":5126,
			"count":4,
			"type":"MAT4"
		}
	],
	"bufferViews":[
		{
			"buffer":0,
			"byteLength":68148,
			"byteOffset":0,
			"target":34962
		},
		{
			"buffer":0,
			"byteLength":68148,
			"byteOffset":68148,
			"target":34962
		},
		{
			"buffer":0,
			"byteLength":45432,
			"byteOffset":136296,
			"target":34962
		},
		{
			"buffer":0,
			"byteLength":22716,
			"byteOffset":181728,
			"target":34962
		},
		{
			"buffer":0,
			"byteLength":90864,
			"byteOffset":204444,
			"target":34962
		},
		{
			"buffer":0,
			"byteLength":33360,
			"byteOffset":295308,
			"target":34963
		},
		{
			"buffer":0,
			"byteLength":256,
			"byteOffset":328668
		}
	],
	"buffers":[
		{
			"byteLength":328924,
			"uri":"data:application/octet-stream;base64,"
		}
	]
}
